<svg width="9" height="10" viewBox="0 0 9 10" fill="none" xmlns="http://www.w3.org/2000/svg">
<path id="Vector" d="M4.5 10C4.84099 10 5.16802 9.86831 5.40914 9.6339C5.65026 9.3995 5.78571 9.08157 5.78571 8.75007H3.21429C3.21429 9.08157 3.34974 9.3995 3.59086 9.6339C3.83198 9.86831 4.15901 10 4.5 10ZM5.13964 0.687384C5.14862 0.600485 5.13875 0.512723 5.11069 0.429757C5.08263 0.346791 5.037 0.270463 4.97673 0.205697C4.91646 0.140931 4.8429 0.0891636 4.76079 0.0537342C4.67867 0.0183049 4.58984 0 4.5 0C4.41016 0 4.32133 0.0183049 4.23921 0.0537342C4.1571 0.0891636 4.08354 0.140931 4.02327 0.205697C3.963 0.270463 3.91737 0.346791 3.88931 0.429757C3.86125 0.512723 3.85139 0.600485 3.86036 0.687384C3.13375 0.831065 2.48054 1.21446 2.01135 1.77264C1.54216 2.33082 1.28581 3.02949 1.28571 3.75034C1.28571 4.43655 0.964286 7.50014 0 8.1251H9C8.03571 7.50014 7.71429 4.43655 7.71429 3.75034C7.71429 2.23792 6.60857 0.975493 5.13964 0.687384Z" fill="white"/>
</svg>
